#!OML:ASF I:\Actors\actors\Patient Classification 2\Patient 1\Session 1\actor1.ASF
:FULLY-SPECIFIED
:DEGREES
238
root -0.648471 18.918 5.56957 15.3366 -2.57748 0.444828
lowerback 19.4973 0.107682 -0.990875
upperback 2.97546 0.104177 2.01985
thorax -7.69802 0.101691 2.72272
lowerneck -9.56806 -1.39994 -0.779832
upperneck 8.61091 -1.65729 -1.05765
head 4.5895 -0.898719 -0.335061
rclavicle -6.55989e-015 1.98785e-015
rhumerus -38.6167 45.7969 -12.3191
rradius 64.2145
rwrist 11.2467
rhand 18.7414 -23.4589
rfingers 7.12502
rthumb 43.3608 -47.5761
lclavicle -6.55989e-015 1.98785e-015
lhumerus -64.2905 -57.4629 45.5197
lradius 72.8486
lwrist -9.88286
lhand 26.5056 -15.0434
lfingers 7.12502
lthumb 50.5397 5.89132
rfemur -9.79287 3.21907 11.7809
rtibia 1.35174e-014
rfoot -14.7538 -13.2142
rtoes -1.13093
lfemur -18.744 -5.79005 -12.9626
ltibia 19.293
lfoot -19.2697 15.1389
ltoes -54.3698
239
root -0.646877 18.9147 5.57676 15.3045 -2.60572 0.427495
lowerback 19.3709 0.165257 -1.00986
upperback 3.0029 0.174213 2.00949
thorax -7.60372 0.134341 2.70268
lowerneck -9.5043 -1.44721 -0.825977
upperneck 8.64295 -1.72064 -1.00144
head 4.589 -0.928408 -0.311701
rclavicle 2.00773e-014 -5.1684e-015
rhumerus -41.9758 47.1474 -15.0427
rradius 65.9532
rwrist 10.1659
rhand 17.4663 -20.6213
rfingers 7.12502
rthumb 42.1678 -45.1548
lclavicle 2.00773e-014 -5.1684e-015
lhumerus -68.943 -57.7097 49.7991
lradius 75.3214
lwrist -8.04426
lhand 26.0432 -17.3939
lfingers 7.12502
lthumb 50.1172 3.76711
rfemur -9.73054 3.2536 11.7848
rtibia -4.69132e-014
rfoot -14.8049 -13.1543
rtoes -1.26832
lfemur -18.7044 -5.71944 -12.9721
ltibia 19.3583
lfoot -19.343 15.0949
ltoes -54.3618
240
root -0.645811 18.9126 5.58286 15.2877 -2.57082 0.429204
lowerback 19.2154 0.247457 -1.04071
upperback 3.05086 0.276651 2.03085
thorax -7.47346 0.182782 2.71542
lowerneck -9.35766 -1.50119 -0.782532
upperneck 8.53957 -1.79272 -1.08821
head 4.51965 -0.966288 -0.351426
rclavicle -4.77083e-015 1.39149e-014
rhumerus -45.6369 48.4767 -18.0163
rradius 67.8229
rwrist 8.89369
rhand 15.6506 -17.3255
rfingers 7.12502
rthumb 40.4637 -42.41
lclavicle -4.77083e-015 1.39149e-014
lhumerus -73.1136 -57.8229 53.8069
lradius 77.7155
lwrist -5.92497
lhand 24.7202 -21.228
lfingers 7.12502
lthumb 48.9042 0.551677
rfemur -9.67643 3.2207 11.7871
rtibia 8.74653e-015
rfoot -14.8133 -13.119
rtoes -1.75726
lfemur -18.6917 -5.69539 -12.9806
ltibia 19.3931
lfoot -19.3805 15.0652
ltoes -54.4152
241
root -0.644465 18.9105 5.58669 15.2865 -2.4538 0.446177
lowerback 19.087 0.338903 -1.00758
upperback 3.07581 0.403816 2.04261
thorax -7.38394 0.242147 2.67587
lowerneck -9.12003 -1.58413 -0.657224
upperneck 8.35855 -1.91171 -1.22184
head 4.40204 -1.02639 -0.422631
rclavicle -7.95139e-016 -1.11319e-014
rhumerus -50.0171 49.7604 -21.6847
rradius 69.8223
rwrist 8.0514
rhand 11.6739 -14.7688
rfingers 7.12502
rthumb 36.7122 -40.9072
lclavicle -7.95139e-016 -1.11319e-014
lhumerus -76.877 -57.9061 57.5979
lradius 79.904
lwrist -3.63746
lhand 22.3915 -26.3982
lfingers 7.12502
lthumb 46.7561 -3.62529
rfemur -9.62754 3.10196 11.7911
rtibia 4.05521e-014
rfoot -14.8598 -13.0685
rtoes -1.85126
lfemur -18.7041 -5.72829 -12.9843
ltibia 19.3877
lfoot -19.36 14.987
ltoes -54.4671
242
root -0.644678 18.9089 5.58221 15.2281 -2.31667 0.538023
lowerback 19.1879 0.431194 -1.02924
upperback 3.04694 0.519969 2.03385
thorax -7.47624 0.299801 2.6505
lowerneck -8.96905 -1.69432 -0.665991
upperneck 8.33187 -2.06329 -1.19086
head 4.36144 -1.0992 -0.418493
rclavicle -1.19271e-015 -2.14687e-014
rhumerus -54.9379 50.9904 -25.9663
rradius 72.0477
rwrist 7.16802
rhand 5.25637 -13.494
rfingers 7.12502
rthumb 30.6145 -40.9682
lclavicle -1.19271e-015 -2.14687e-014
lhumerus -80.5462 -57.8733 61.4523
lradius 81.9177
lwrist -1.095
lhand 16.9859 -32.8435
lfingers 7.12502
lthumb 41.7176 -8.15951
rfemur -9.54004 2.95222 11.7306
rtibia -1.82882e-014
rfoot -14.8931 -13.0266
rtoes -1.6321
lfemur -18.6896 -5.79541 -13.0563
ltibia 19.3637
lfoot -19.316 14.8987
ltoes -54.5121
